<?xml version="1.0" encoding="utf-8"?>
<!-- Generator: Adobe Illustrator 22.0.1, SVG Export Plug-In . SVG Version: 6.00 Build 0)  -->
<svg version="1.1" id="Layer_1" xmlns="http://www.w3.org/2000/svg" xmlns:xlink="http://www.w3.org/1999/xlink" x="0px" y="0px"
	 viewBox="0 0 320 240" style="enable-background:new 0 0 320 240;" xml:space="preserve">
<style type="text/css">
	.st0{fill:none;stroke:#231F20;stroke-width:5;stroke-miterlimit:10;}
	.st1{fill:#231F20;}
	.st2{font-family:'YatraOne-Regular';}
	.st3{font-size:20.2532px;}
</style>
<g id="rEzieV.tif">
	<path class="st0" d="M245.7,66.6c12.7-7.4,27.5-7.6,38.2-0.4c9.7,6.4,12.5,16.4,13.2,19.4c4.3,18-8.3,35.6-20.6,43.2
		c-6.7,4.1-13.8,5.7-18.8,6.8c-10,2.2-17.7,1.7-21.8,1.6c-9.8-0.3-24.1,0.5-43.3,5.5c0.1-1.1,0.3-2.9,0.3-5
		c0.1-9.9-3.1-17.2-4.5-20.6c-0.7-1.8-7.6-18.8-10.2-36.1c-1.3-8.4-2.1-14.3-0.6-22.1c1-5,3.8-19,16.8-27.6
		c2.6-1.7,15.4-9.7,30.5-4.7c2.2,0.7,14,4.9,19.8,17.4c3.8,8.3,3,15.9,2.5,19c-0.3,0.9-0.7,1.9-1.2,3c-0.2,0.4-0.4,0.8-0.7,1.2"/>
	<path class="st0" d="M215.3,209.8c4.4-0.9,8.8-1.8,13.1-2.6c0.6,0.1,3,0.5,4.9-1c2.6-1.9,2.9-5.7,1.8-8.1c-1.6-3.6-6.5-4.7-9.5-4.5
		c-2.6,0.1-3.3,1.2-5,0.6c-2.6-0.9-4.5-4.6-3.5-7c0.8-2.1,3.5-2.8,4.9-3.1c10.7-2.7,30.2-6.1,32.9-6.6c1,0.1,2.6,0.1,4.1-0.8
		c2.7-1.5,4.1-5,3.6-8.8c-4.3-21.2-8.5-42.4-12.8-63.7c0-1.3-0.1-3-1-4.7c-2.6-5.6-9.4-6.6-10.1-6.7c-29,5.8-58,11.7-87.1,17.5
		c-1.6,0-3.8,0.1-6.2,1.2c-6.9,3.3-8.1,11.6-8.2,12.5c0.5,2.6,1,5.2,1.6,7.8c3.2,16,6.4,32,9.7,48c0.5,2.6,1,5.2,1.6,7.8
		c0,1.1,0.3,2,0.6,2.7c2.2,5.4,10.2,5.9,10.7,5.9c9.6-1.9,19.2-3.9,28.8-5.8c0.6-0.2,1.6-0.5,2.7-0.6c1.3-0.1,4.2-0.2,5.8,1.7
		c1.8,2.2,1.1,6.1-0.9,7.5c-1.4,1.1-2.5,0.1-4.6,0.9c-2.8,1.1-5.2,4.4-5.1,7.9c0.1,2.3,1.2,5.8,4.2,6.6c2,0.5,3.8-0.5,4.3-0.9
		C202.9,212.3,209.1,211,215.3,209.8z"/>
	<text transform="matrix(1 0 0 1 22.2881 74.0811)"><tspan x="0" y="0" class="st1 st2 st3">Right at the</tspan><tspan x="0" y="24.3" class="st1 st2 st3">Intersection of </tspan></text>
	<text transform="matrix(0.9072 -0.4206 0.4206 0.9072 207.3903 130.2074)" class="st1 st2 st3">and</text>
</g>
</svg>
